<svg xmlns="http://www.w3.org/2000/svg" viewBox="449 -115 363 379">
  <g fill="none">
    <path fill="#fff" d="M0 0h361.5v377.63H0z"/>
    <path fill="#000" fill-opacity=".37" d="M450-76.34h361.5V263.5H450z"/>
    <path fill="#e5e5e5" d="M569.24 39.37h134.74v134.74H569.24zM727.95 83.73h46.01v46.01h-46.01zM488.94 83.74h46.01v46.01h-46.01zM581.16 215.19h30.4v30.4h-30.4zM621.41 215.19h30.4v30.4h-30.4zM661.67 215.19h30.4v30.4h-30.4z"/>
    <text transform="translate(786.92 98.55)" fill="#505050" fill-opacity=".75">
      <tspan font-family="Helvetica Neue" font-size="14" font-weight="500" x="5.59" y="13" textLength="8.4">&gt;</tspan>
    </text>
    <text transform="translate(455 98.55)" fill="#505050" fill-opacity=".75">
      <tspan font-family="Helvetica Neue" font-size="14" font-weight="500" x="5.59" y="13" textLength="8.4">&lt;</tspan>
    </text>
    <text transform="translate(702.27 222.2)" fill="#505050" fill-opacity=".75">
      <tspan font-family="Helvetica Neue" font-size="14" font-weight="500" x="5.59" y="13" textLength="8.4">&gt;</tspan>
    </text>
    <text transform="translate(551.2 222.2)" fill="#505050" fill-opacity=".75">
      <tspan font-family="Helvetica Neue" font-size="14" font-weight="500" x="5.59" y="13" textLength="8.4">&lt;</tspan>
    </text>
    <path d="M625.9 132.01l15.98-31.76a3 3 0 0 1 5.36.02l15.82 31.83a3 3 0 0 1-2.7 4.34l-31.79-.08a3 3 0 0 1-2.67-4.35z" fill="#ccc"/>
    <path d="M601.28 131.98l21.55-42.82a3 3 0 0 1 5.36.02l21.33 42.92a3 3 0 0 1-2.7 4.34l-42.87-.11a3 3 0 0 1-2.67-4.35z" fill="#c9c9c9"/>
    <path d="M508.6 118.6l8.49-16.85a2 2 0 0 1 3.57.01l8.4 16.9a2 2 0 0 1-1.8 2.89l-16.87-.04a2 2 0 0 1-1.78-2.9z" fill="#ccc"/>
    <path d="M494.76 118.6l11.61-23.08a2 2 0 0 1 3.58 0l11.5 23.14a2 2 0 0 1-1.8 2.89l-23.1-.06a2 2 0 0 1-1.8-2.9z" fill="#c9c9c9"/>
    <path d="M747.63 118.6l8.48-16.85a2 2 0 0 1 3.57 0l8.4 16.9a2 2 0 0 1-1.8 2.89l-16.87-.04a2 2 0 0 1-1.78-2.9z" fill="#ccc"/>
    <path d="M733.78 118.58l11.6-23.07a2 2 0 0 1 3.59 0l11.5 23.14a2 2 0 0 1-1.8 2.89l-23.11-.06a2 2 0 0 1-1.78-2.9z" fill="#c9c9c9"/>
    <path d="M774.34-4.72a11.62 11.62 0 0 0-8.28-3.42c-3.12 0-6.06 1.21-8.27 3.42a11.62 11.62 0 0 0-3.43 8.28c0 3.13 1.22 6.06 3.43 8.27a11.62 11.62 0 0 0 8.27 3.43c3.13 0 6.07-1.22 8.28-3.43a11.62 11.62 0 0 0 3.43-8.27c0-3.13-1.22-6.06-3.43-8.28zm-.94 15.61a10.3 10.3 0 0 1-7.34 3.04 10.38 10.38 0 1 1 7.33-17.7 10.38 10.38 0 0 1 0 14.66z" fill="#333"/>
    <path d="M771.22-1.6a.66.66 0 0 0-.94 0l-4.22 4.22-4.21-4.22a.66.66 0 0 0-.94 0 .66.66 0 0 0 0 .94l4.21 4.22-4.21 4.21a.67.67 0 1 0 .47 1.14c.16 0 .34-.06.46-.2l4.22-4.21 4.22 4.22c.12.12.3.2.46.2.18 0 .34-.07.47-.2a.66.66 0 0 0 0-.95l-4.2-4.21 4.21-4.22a.66.66 0 0 0 0-.94zM738.9 3.27c-.37 0-.67.3-.67.67v6.1a3 3 0 0 1-3 3H720.5a3 3 0 0 1-3-3v-6.2c0-.38-.3-.67-.67-.67-.37 0-.67.3-.67.67v6.2c0 2.4 1.95 4.34 4.34 4.34h14.72c2.4 0 4.34-1.95 4.34-4.34v-6.1c0-.37-.3-.67-.67-.67z" fill="#333"/>
    <path d="M727.4 9.06a.65.65 0 0 0 .94 0l4.26-4.26a.67.67 0 0 0 0-.95.67.67 0 0 0-.94 0l-3.12 3.12v-13.6c0-.38-.3-.68-.67-.68-.37 0-.67.3-.67.67v13.6l-3.12-3.11a.67.67 0 0 0-.95 0 .67.67 0 0 0 0 .95z" fill="#333"/>
    <path d="M594.02 239.18l6.03-12a2 2 0 0 1 3.58.02l5.97 12.02a2 2 0 0 1-1.8 2.88l-12-.03a2 2 0 0 1-1.78-2.9z" fill="#ccc"/>
    <path d="M583.06 239.16l8.51-16.9a2 2 0 0 1 3.58 0l8.42 16.96a2 2 0 0 1-1.8 2.88l-16.92-.04a2 2 0 0 1-1.79-2.9z" fill="#c9c9c9"/>
    <path d="M634.28 239.16l6.03-11.99a2 2 0 0 1 3.58.01l5.97 12.02a2 2 0 0 1-1.8 2.89l-12-.03a2 2 0 0 1-1.78-2.9z" fill="#ccc"/>
    <path d="M623.32 239.15l8.51-16.91a2 2 0 0 1 3.58 0l8.42 16.96a2 2 0 0 1-1.8 2.89l-16.93-.04a2 2 0 0 1-1.78-2.9z" fill="#c9c9c9"/>
    <path d="M675 239.15l6.02-12a2 2 0 0 1 3.58.02l5.97 12.01a2 2 0 0 1-1.8 2.9l-12-.04a2 2 0 0 1-1.78-2.9z" fill="#ccc"/>
    <path d="M664.03 239.13l8.51-16.9a2 2 0 0 1 3.58 0l8.42 16.95a2 2 0 0 1-1.8 2.9l-16.93-.05a2 2 0 0 1-1.78-2.9z" fill="#c9c9c9"/>
    <ellipse cx="619.72" cy="194.65" rx="4.54" ry="5.34" fill="#e5e5e5"/>
    <ellipse cx="636.61" cy="194.65" rx="4.54" ry="5.34" fill="#e5e5e5"/>
    <ellipse cx="653.5" cy="194.65" rx="4.54" ry="5.34" fill="#e5e5e5"/>
    <circle cx="582.73" cy="21.12" r="11.73" fill="#000"/>
    <circle cx="502.42" cy="66.31" r="11.73" fill="#4040ff"/>
    <circle cx="707.27" cy="-20.6" r="11.73" fill="#ff4040"/>
    <circle cx="673.48" cy="190.88" r="11.73" fill="#54d6ff"/>
    <circle cx="567.73" cy="209.04" r="11.73" fill="#ff9300"/>
    <text transform="translate(574.59 12.92)" fill="#fff">
      <tspan font-family="Helvetica Neue" font-size="14" font-weight="500" x="4.25" y="13" textLength="7.78">1</tspan>
    </text>
    <text transform="translate(494.57 58.12)" fill="#fff">
      <tspan font-family="Helvetica Neue" font-size="14" font-weight="500" x="4.25" y="13" textLength="7.78">2</tspan>
    </text>
    <text transform="translate(699.12 -28.8)" fill="#fff">
      <tspan font-family="Helvetica Neue" font-size="14" font-weight="500" x="4.25" y="13" textLength="7.78">3</tspan>
    </text>
    <text transform="translate(664.8 182.69)" fill="#fff">
      <tspan font-family="Helvetica Neue" font-size="14" font-weight="500" x="4.25" y="13" textLength="7.78">4</tspan>
    </text>
    <text transform="translate(559.58 200.84)" fill="#fff">
      <tspan font-family="Helvetica Neue" font-size="14" font-weight="500" x="4.25" y="13" textLength="7.78">5</tspan>
    </text>
    <circle cx="466.43" cy="-57.44" r="11.73" fill="#ff40ff"/>
    <text transform="translate(458.29 -65.64)" fill="#fff">
      <tspan font-family="Helvetica Neue" font-size="14" font-weight="500" x="4.25" y="13" textLength="7.78">6</tspan>
    </text>
    <circle cx="633.6" cy="-95.23" r="11.73" fill="#999"/>
    <text transform="translate(625.45 -103.43)" fill="#fff">
      <tspan font-family="Helvetica Neue" font-size="14" font-weight="500" x="4.25" y="13" textLength="7.78">7</tspan>
    </text>
  </g>
</svg>
