<svg xmlns="http://www.w3.org/2000/svg" viewBox="449 -115 363 379">
  <g fill="none">
    <path fill="#fff" d="M0 0h361.50093v502.6366H0z"/>
    <path fill="#000" fill-opacity=".37467894" d="M450-76.3355h361.50093V263.5H450z"/>
    <path fill="#e5e5e5" d="M569.2435 39.37165h134.73907v134.73907H569.2435zM727.9539 83.72734h46.00846v46.00846H727.9539zM488.93517 83.73695h46.00846v46.00846h-46.00846zM581.1564 215.1897h30.39845v30.39845H581.1564zM621.4138 215.1897h30.39845v30.39845H621.4138zM661.6712 215.1897h30.39845v30.39845H661.6712z"/>
    <text fill="#505050" fill-opacity=".7544146" transform="translate(786.9241 98.54519)">
      <tspan x="5.5884344" y="13" font-family="Helvetica Neue" font-size="14" font-weight="500" textLength="8.4">&gt;</tspan>
    </text>
    <text fill="#505050" fill-opacity=".7544146" transform="translate(455 98.54519)">
      <tspan x="5.5884344" y="13" font-family="Helvetica Neue" font-size="14" font-weight="500" textLength="8.4">&lt;</tspan>
    </text>
    <text fill="#505050" fill-opacity=".7544146" transform="translate(702.27485 222.19293)">
      <tspan x="5.5884344" y="13" font-family="Helvetica Neue" font-size="14" font-weight="500" textLength="8.4">&gt;</tspan>
    </text>
    <text fill="#505050" fill-opacity=".7544146" transform="translate(551.19266 222.19293)">
      <tspan x="5.5884344" y="13" font-family="Helvetica Neue" font-size="14" font-weight="500" textLength="8.4">&lt;</tspan>
    </text>
    <path fill="#ccc" d="M625.8989 132.00969l15.9779-31.75532c.7447-1.48006 2.54825-2.07618 4.0283-1.33148.5799.29176 1.04944.76371 1.3383 1.34502l15.81746 31.83554c.73724 1.4838.13204 3.2843-1.35176 4.02153-.4171.20722-.8767.3145-1.3425.31332l-31.7954-.08022c-1.65685-.00418-2.9966-1.35071-2.9924-3.00756.00116-.46573.11075-.92479.3201-1.34083z"/>
    <path fill="#c9c9c9" d="M601.2804 131.98174l21.5446-42.81868c.7447-1.48006 2.5482-2.07618 4.02826-1.33148.57984.29176 1.04944.76371 1.33824 1.34502l21.3282 42.92685c.73724 1.4838.132 3.2843-1.3518 4.02153-.4171.20722-.8767.3145-1.3424.31332l-42.8728-.10817c-1.6568-.00418-2.9966-1.35071-2.9924-3.00756.0012-.46573.1108-.92479.3201-1.34083z"/>
    <path fill="#ccc" d="M508.60744 118.60785l8.47966-16.85286c.49646-.98671 1.6988-1.38413 2.6855-.88766.3866.19451.69964.50914.8922.89668l8.3945 16.89545c.49147.9892.088 2.18953-.9012 2.68101-.2781.13816-.5845.20967-.895.20889l-16.8741-.04258c-1.1046-.00278-1.99775-.90047-1.99496-2.00504.00076-.31048.07386-.61653.2134-.89389z"/>
    <path fill="#c9c9c9" d="M494.7595 118.5922l11.6109-23.07614c.4965-.98671 1.69884-1.38412 2.68555-.88766.38655.19451.69962.50914.89215.89669l11.49436 23.13443c.49148.9892.088 2.18953-.9012 2.68102-.27806.13815-.58446.20967-.89496.20889l-23.1053-.0583c-1.10454-.00279-1.9977-.90048-1.9949-2.00504.00077-.31049.0738-.61653.2134-.89389z"/>
    <path fill="#ccc" d="M747.6264 118.598l8.4794-16.85238c.4965-.9867 1.6988-1.38412 2.68555-.88765.38655.1945.69965.50914.89215.89668l8.3943 16.89495c.49145.9892.088 2.18953-.9012 2.68101-.2781.13816-.5845.20968-.895.20889l-16.8736-.04257c-1.1046-.00279-1.9978-.90048-1.995-2.00504.0008-.31049.0739-.61653.2134-.89389z"/>
    <path fill="#c9c9c9" d="M733.7785 118.58227l11.61065-23.07551c.49645-.9867 1.69885-1.38412 2.68555-.88765.3865.1945.6996.50914.89214.89668l11.49406 23.13381c.4915.9892.088 2.18953-.9012 2.68101-.2781.13816-.5845.20968-.895.20889l-23.1046-.0583c-1.1046-.00278-1.9978-.90047-1.995-2.00503.0008-.31049.0739-.61654.2134-.8939z"/>
    <path fill="#333" d="M774.3383-4.715816c-2.2114-2.211427-5.1468-3.427958-8.2744-3.427958-3.1275 0-6.0629 1.216531-8.2743 3.427958-2.2115 2.211427-3.428 5.14686236-3.428 8.2743816 0 3.1275194 1.2165 6.0629544 3.428 8.2743814 2.2114 2.211427 5.1468 3.427958 8.2743 3.427958 3.1276 0 6.063-1.216531 8.2744-3.427958 2.21145-2.211427 3.428-5.146862 3.428-8.2743814 0-3.12751924-1.21655-6.0629546-3.428-8.2743816zm-.9407 15.608045c-1.9602 1.96024-4.5657 3.038865-7.3337 3.038865-2.7679 0-5.3734-1.078625-7.3336-3.038865-4.0436-4.043612-4.0436-10.62371513 0-14.6673266 1.9602-1.9602404 4.5657-3.0388654 7.3336-3.0388654 2.768 0 5.3735 1.078625 7.3337 3.0388654 4.0436 4.04361147 4.0436 10.6237146 0 14.6673266z"/>
    <path fill="#333" d="M771.22065-1.5981472c-.26105-.2610371-.67965-.2610371-.94075 0l-4.216 4.2159944-4.216-4.2159944c-.261-.2610371-.6796-.2610371-.9407 0-.261.261037-.261.6796813 0 .9407184l4.216 4.2159944-4.216 4.2159944c-.261.261037-.261.679681 0 .940718.1281.128056.3005.197009.4679.197009.1675 0 .3399-.064027.4679-.197009l4.216-4.215994 4.216 4.215994c.1281.128056.3004.197009.4679.197009.1724 0 .3398-.064027.4679-.197009.261-.261037.261-.679681 0-.940718l-4.2061-4.2159944 4.21595-4.2159944c.26105-.2610371.26105-.6796814 0-.9407184zM738.9026 3.265981c-.3725 0-.6705.2980224-.6705.67055v6.099522c0 1.65899-1.3511 3.005057-3.0051 3.005057h-14.7124c-1.65895 0-3.005-1.351034-3.005-3.005057V3.8371904c0-.3725278-.298-.67055-.6706-.67055-.3725 0-.6705.2980222-.6705.67055v6.1988626c0 2.399079 1.952 4.346157 4.3461 4.346157h14.7124c2.3991 0 4.3462-1.952045 4.3462-4.346157V3.936531c0-.3675606-.2981-.67055-.6706-.67055z"/>
    <path fill="#333" d="M727.39896 9.057547c.12914.129143.30298.198681.47184.198681.1689 0 .34275-.064571.4719-.198681l4.2617-4.2617184c.2633-.263253.2633-.6854511 0-.9487041-.2632-.263253-.6854-.263253-.9487 0l-3.1143 3.1192995V-6.638291c0-.372528-.29805-.67055-.6706-.67055-.3725 0-.6705.298022-.6705.67055V6.966424l-3.1193-3.1192995c-.2633-.263253-.6855-.263253-.9487 0-.2633.263253-.2633.6854511 0 .9487041z"/>
    <path fill="#ccc" d="M594.0227 239.17577l6.0312-11.98665c.49645-.98671 1.6988-1.38412 2.6855-.88765.3866.1945.6996.50913.8922.89668l5.9706 12.01693c.4915.9892.088 2.18954-.9012 2.68102-.27806.13815-.5845.20967-.89496.2089l-12.00179-.0303c-1.10455-.00278-1.99775-.90047-1.99495-2.00503.0008-.31049.07385-.61654.2134-.8939z"/>
    <path fill="#c9c9c9" d="M583.0646 239.16333l8.509-16.91113c.4965-.9867 1.6988-1.38412 2.6855-.88765.3866.1945.69965.50915.8922.89668l8.4235 16.95385c.4915.9892.088 2.18954-.9012 2.68102-.27804.13815-.58444.20967-.8949.2089l-16.9325-.04273c-1.1046-.00279-1.99776-.90047-1.995-2.00504.0008-.31049.0739-.61653.2134-.8939z"/>
    <path fill="#ccc" d="M634.2801 239.16057l6.0312-11.98666c.49646-.98671 1.6988-1.38411 2.6855-.88765.3866.1945.6996.50914.8922.89668l5.9706 12.01694c.4915.9892.088 2.18952-.9012 2.68102-.27806.13815-.5845.20966-.89495.20888l-12.0018-.03028c-1.10455-.0028-1.99775-.90048-1.99495-2.00504.0008-.31049.07385-.61653.2134-.89389z"/>
    <path fill="#c9c9c9" d="M623.322 239.14813l8.509-16.91113c.4965-.9867 1.6988-1.38413 2.6855-.88766.3866.19451.69965.50914.8922.89668l8.4235 16.95386c.4915.9892.088 2.18952-.9012 2.68102-.278.13815-.58444.20966-.8949.20888l-16.9325-.04272c-1.1046-.00279-1.99775-.90048-1.995-2.00504.0008-.31049.0739-.61653.2134-.89389z"/>
    <path fill="#ccc" d="M674.9912 239.14536l6.0312-11.98666c.4965-.9867 1.6988-1.38412 2.68555-.88765.38655.19451.69965.50915.89215.89668l5.9706 12.01694c.4915.9892.088 2.18953-.9012 2.68101-.278.13816-.5844.20968-.8949.20889l-12.0018-.03027c-1.1046-.0028-1.99775-.90048-1.995-2.00505.0008-.31049.0739-.61653.2134-.89389z"/>
    <path fill="#c9c9c9" d="M664.0332 239.13292l8.5089-16.91112c.4965-.98672 1.69886-1.38413 2.6856-.88766.3865.1945.6996.50914.8921.89668l8.42355 16.95385c.49145.9892.08805 2.18953-.90115 2.68101-.2781.13816-.5845.20968-.895.20889l-16.9325-.04272c-1.10455-.00279-1.9977-.90047-1.9949-2.00505.00075-.31048.0738-.61652.2134-.89388z"/>
    <ellipse cx="619.72485" cy="194.6502" fill="#e5e5e5" rx="4.5401336" ry="5.3402765"/>
    <ellipse cx="636.613" cy="194.6502" fill="#e5e5e5" rx="4.5401336" ry="5.3402765"/>
    <ellipse cx="653.5012" cy="194.6502" fill="#e5e5e5" rx="4.5401336" ry="5.3402765"/>
    <circle cx="582.7327" cy="21.11957" r="11.731848" fill="#000"/>
    <circle cx="502.4244" cy="66.312434" r="11.731848" fill="#4040ff"/>
    <circle cx="707.2689" cy="-20.603667" r="11.731848" fill="#ff4040"/>
    <circle cx="673.4787" cy="190.885" r="11.731848" fill="#54d6ff"/>
    <circle cx="567.72836" cy="209.03884" r="11.731848" fill="#ff9300"/>
    <text fill="#fff" transform="translate(574.5874 12.92357)">
      <tspan x="4.253275" y="13" font-family="Helvetica Neue" font-size="14" font-weight="500" textLength="7.784">1</tspan>
    </text>
    <text fill="#fff" transform="translate(494.57023 58.116435)">
      <tspan x="4.253275" y="13" font-family="Helvetica Neue" font-size="14" font-weight="500" textLength="7.784">2</tspan>
    </text>
    <text fill="#fff" transform="translate(699.1236 -28.799666)">
      <tspan x="4.253275" y="13" font-family="Helvetica Neue" font-size="14" font-weight="500" textLength="7.784">3</tspan>
    </text>
    <text fill="#fff" transform="translate(664.7987 182.689)">
      <tspan x="4.253275" y="13" font-family="Helvetica Neue" font-size="14" font-weight="500" textLength="7.784">4</tspan>
    </text>
    <text fill="#fff" transform="translate(559.5831 200.84284)">
      <tspan x="4.253275" y="13" font-family="Helvetica Neue" font-size="14" font-weight="500" textLength="7.784">5</tspan>
    </text>
    <circle cx="466.4316" cy="-57.43916" r="11.731848" fill="#ff40ff"/>
    <text fill="#fff" transform="translate(458.2863 -65.63516)">
      <tspan x="4.253275" y="13" font-family="Helvetica Neue" font-size="14" font-weight="500" textLength="7.784">6</tspan>
    </text>
    <circle cx="633.59935" cy="-95.23183" r="11.731848" fill="#999"/>
    <text fill="#fff" transform="translate(625.4541 -103.42783)">
      <tspan x="4.253275" y="13" font-family="Helvetica Neue" font-size="14" font-weight="500" textLength="7.784">7</tspan>
    </text>
  </g>
</svg>
